<svg xmlns="http://www.w3.org/2000/svg" width="22" height="22" viewBox="0 0 22 22"><path d="M10.9997067 0C17.0746072 0 22 4.92484667 22 10.99978 22 17.0747133 17.0746072 22 10.9997067 22 4.92480617 22 0 17.07442 0 10.99978 0 4.92514 4.92480617 0 10.9997067 0zm4.9407763 14.4098823l-3.5289164-3.5289164 3.5289164-3.5289164c.3902981-.39029814.3902981-1.0212684 0-1.41156655-.3902982-.39029815-1.0212685-.39029815-1.4115666 0L11 9.46939935l-3.5289164-3.5289164c-.39029815-.39029815-1.0212684-.39029815-1.41156655 0s-.39029815 1.0212684 0 1.41156656l3.5289164 3.5289164-3.5289164 3.5289164c-.39029815.3902981-.39029815 1.0212684 0 1.4115666.39029815.3902981 1.0212684.3902981 1.41156656 0L11 12.2925325l3.5289164 3.5289164c.3902981.3902981 1.0212684.3902981 1.4115666 0 .3902981-.3902982.3902981-1.0212685 0-1.4115666z"/></svg>